<svg width="132" height="122" viewBox="0 0 132 122" fill="none" xmlns="http://www.w3.org/2000/svg">
<path d="M114.203 88.8943V33.1224C114.203 33.1125 114.201 33.1027 114.196 33.094C114.191 33.0853 114.184 33.078 114.176 33.0725L66.0278 5.18604C66.0196 5.18062 66.01 5.17773 66.0001 5.17773C65.9903 5.17773 65.9807 5.18062 65.9725 5.18604L17.8247 33.0723C17.8163 33.0777 17.8095 33.0851 17.8046 33.0938C17.7998 33.1025 17.7971 33.1123 17.7969 33.1222V88.8943C17.797 88.9043 17.7997 88.9141 17.8045 88.9228C17.8094 88.9315 17.8163 88.9388 17.8247 88.9442L66 116.83C66.0082 116.836 66.0178 116.839 66.0277 116.839C66.0376 116.839 66.0473 116.836 66.0554 116.83L114.203 88.944C114.207 88.9362 114.209 88.9277 114.209 88.9192C114.209 88.9106 114.207 88.9021 114.203 88.8943Z" fill="white"/>
<path d="M114.203 88.8943V33.1224C114.203 33.1125 114.201 33.1027 114.196 33.094C114.191 33.0853 114.184 33.078 114.176 33.0725L66.0278 5.18604C66.0196 5.18062 66.01 5.17773 66.0001 5.17773C65.9903 5.17773 65.9807 5.18062 65.9725 5.18604L17.8247 33.0723C17.8163 33.0777 17.8095 33.0851 17.8046 33.0938C17.7998 33.1025 17.7971 33.1123 17.7969 33.1222V88.8943C17.797 88.9043 17.7997 88.9141 17.8045 88.9228C17.8094 88.9315 17.8163 88.9388 17.8247 88.9442L66 116.83C66.0082 116.836 66.0178 116.839 66.0277 116.839C66.0376 116.839 66.0473 116.836 66.0554 116.83L114.203 88.944C114.207 88.9362 114.209 88.9277 114.209 88.9192C114.209 88.9106 114.207 88.9021 114.203 88.8943Z" fill="white"/>
<path d="M66 121.276C65.2255 121.288 64.4614 121.097 63.7838 120.72L15.5363 92.751C14.8753 92.3484 14.3285 91.7823 13.9481 91.1069C13.5678 90.4315 13.3668 89.6695 13.3643 88.8938V30.5313L15.6259 29.2029L63.7829 1.33437C64.4656 0.934406 65.2419 0.723633 66.0325 0.723633C66.823 0.723633 67.5994 0.934406 68.282 1.33437L118.635 30.5048L118.663 33.1228V88.8938C118.661 89.6794 118.456 90.4512 118.068 91.1333C117.679 91.8154 117.121 92.3845 116.447 92.7844L68.2439 120.698C67.5577 121.08 66.785 121.279 66 121.276ZM22.2293 86.359L66 111.71L109.771 86.359V35.6565L66 10.3052L22.2293 35.6565V86.359Z" fill="#33475B"/>
<path d="M36.8292 82.5732C36.7454 82.4692 36.6393 82.3856 36.5188 82.3286C36.3907 82.2681 36.2511 82.2359 36.1096 82.2342C36.0294 82.2353 35.9496 82.2447 35.8713 82.262C35.7937 82.2836 35.7191 82.3154 35.6497 82.3565C35.5831 82.3996 35.5265 82.4565 35.4834 82.5233C35.4382 82.5987 35.4151 82.6855 35.4169 82.7735C35.4151 82.8538 35.4362 82.9329 35.4778 83.0015C35.5138 83.0667 35.5652 83.1221 35.6275 83.1626C35.7003 83.2105 35.7783 83.2497 35.8601 83.2793L36.1705 83.3794L36.5582 83.5183C36.6909 83.5692 36.8159 83.6384 36.9296 83.724C37.0429 83.8113 37.1372 83.921 37.2066 84.0464C37.2826 84.1958 37.3189 84.3624 37.3119 84.53C37.3203 84.7221 37.2803 84.9132 37.1956 85.0857C37.1263 85.2394 37.0218 85.3746 36.8908 85.4803C36.7549 85.5887 36.5984 85.6681 36.4309 85.7137C36.251 85.7664 36.0644 85.7926 35.8769 85.7914C35.6226 85.7909 35.3706 85.7419 35.1345 85.6469C34.9022 85.5627 34.6959 85.419 34.5361 85.2301L35.0348 84.7631C35.1329 84.9 35.2646 85.0091 35.4171 85.0799C35.5647 85.1555 35.7278 85.1954 35.8935 85.1966C35.9777 85.1961 36.0615 85.1849 36.1429 85.1633C36.2253 85.1478 36.3031 85.1136 36.3702 85.0633C36.4367 85.0133 36.4932 84.951 36.5365 84.8798C36.5832 84.7989 36.6063 84.7064 36.603 84.613C36.6052 84.5199 36.5781 84.4285 36.5255 84.3517C36.4753 84.2803 36.4111 84.2198 36.337 84.1739C36.245 84.1227 36.1485 84.0799 36.0488 84.046L35.6943 83.9293L35.3398 83.796C35.2242 83.7447 35.1176 83.6753 35.024 83.5903C34.9257 83.5017 34.8466 83.3939 34.7914 83.2735C34.7294 83.1278 34.6992 82.9705 34.7026 82.8122C34.6987 82.6316 34.7427 82.4532 34.8301 82.2953C34.9114 82.1523 35.023 82.0289 35.1571 81.934C35.2976 81.8385 35.453 81.7672 35.617 81.7229C35.7979 81.6763 35.9842 81.6539 36.1709 81.6562C36.3765 81.6573 36.5803 81.6931 36.774 81.7618C36.979 81.8268 37.1679 81.9347 37.328 82.0786L36.8292 82.5732Z" fill="#33475B"/>
<path d="M38.1576 83.7077C38.1526 83.4149 38.2053 83.1241 38.3127 82.8518C38.4118 82.6084 38.5609 82.3887 38.7503 82.207C38.9421 82.0266 39.1682 81.8869 39.4152 81.7965C39.9536 81.6092 40.5391 81.6092 41.0774 81.7965C41.3266 81.8857 41.5549 82.0255 41.7479 82.207C41.939 82.3885 42.09 82.6081 42.1912 82.8518C42.2986 83.1241 42.3513 83.4149 42.3463 83.7077C42.3508 83.995 42.2981 84.2803 42.1912 84.5469C42.0904 84.794 41.9394 85.0173 41.7479 85.2027C41.5561 85.3901 41.3278 85.5358 41.0774 85.6308C40.5416 85.8325 39.951 85.8325 39.4152 85.6308C39.1671 85.5346 38.9409 85.389 38.7503 85.2027C38.5545 85.0187 38.3997 84.7952 38.2961 84.5469C38.1946 84.2792 38.1476 83.9939 38.1576 83.7077ZM38.9114 83.7077C38.9114 83.8974 38.9452 84.0856 39.0112 84.2634C39.0709 84.4347 39.1652 84.5917 39.2882 84.7248C39.4083 84.8532 39.5536 84.9553 39.7148 85.0249C39.8895 85.101 40.0784 85.1388 40.2688 85.136C40.4591 85.1371 40.6476 85.0993 40.8228 85.0249C40.9841 84.9553 41.1293 84.8532 41.2495 84.7248C41.3725 84.5917 41.4668 84.4347 41.5265 84.2634C41.5906 84.0853 41.6225 83.8971 41.6206 83.7077C41.6232 83.5182 41.5913 83.3299 41.5265 83.1519C41.4648 82.9833 41.3707 82.8284 41.2495 82.6962C41.1313 82.5667 40.988 82.4627 40.8284 82.3905C40.6532 82.3161 40.4647 82.2783 40.2744 82.2794C40.0841 82.2777 39.8955 82.3155 39.7204 82.3905C39.5599 82.4611 39.4164 82.5653 39.2994 82.6962C39.1781 82.8284 39.084 82.9833 39.0224 83.1519C38.9518 83.3288 38.9141 83.5172 38.911 83.7077H38.9114Z" fill="#33475B"/>
<path d="M43.3828 81.7512H44.0809V85.0862H45.7431V85.7087H43.3828V81.7512Z" fill="#33475B"/>
<path d="M49.5331 84.2413C49.5376 84.4606 49.496 84.6783 49.4112 84.8805C49.3387 85.0666 49.2251 85.2339 49.0788 85.3696C48.9356 85.5052 48.7658 85.6093 48.5802 85.6754C48.3801 85.7508 48.1678 85.7884 47.9541 85.7865C47.7404 85.7873 47.5284 85.7497 47.3279 85.6754C47.1435 85.6069 46.9742 85.5031 46.8293 85.3696C46.6831 85.2339 46.5694 85.0666 46.497 84.8805C46.4149 84.6775 46.3735 84.4603 46.375 84.2413V81.7512H47.0731V84.2145C47.0737 84.3289 47.0886 84.4428 47.1175 84.5535C47.1481 84.6639 47.1988 84.7676 47.2672 84.8593C47.3398 84.9514 47.4327 85.0253 47.5386 85.0754C47.6687 85.1353 47.811 85.1638 47.9541 85.1588C48.0989 85.1635 48.243 85.135 48.3752 85.0754C48.481 85.0253 48.5739 84.9513 48.6466 84.8593C48.7154 84.7686 48.7645 84.6645 48.7907 84.5535C48.8222 84.4434 48.8372 84.3291 48.835 84.2145V81.7512H49.5331V84.2413Z" fill="#33475B"/>
<path d="M51.4894 82.3627H50.2871V81.7512H53.3898V82.3627H52.1875V85.6977H51.4894V82.3627Z" fill="#33475B"/>
<path d="M54.1768 81.7512H54.8748V85.6864H54.1768V81.7512Z" fill="#33475B"/>
<path d="M55.8829 83.7077C55.8798 83.4146 55.9344 83.1237 56.0436 82.8518C56.1427 82.6084 56.2919 82.3887 56.4813 82.207C56.673 82.0266 56.8992 81.8869 57.1462 81.7965C57.6845 81.6092 58.27 81.6092 58.8084 81.7965C59.0576 81.8857 59.2859 82.0255 59.4789 82.207C59.67 82.3885 59.821 82.6081 59.9222 82.8518C60.0295 83.1241 60.0822 83.4149 60.0772 83.7077C60.0818 83.995 60.029 84.2803 59.9222 84.5469C59.8213 84.794 59.6704 85.0173 59.4789 85.2027C59.2871 85.3901 59.0588 85.5358 58.8084 85.6308C58.2726 85.8325 57.682 85.8325 57.1462 85.6308C56.898 85.5346 56.6718 85.389 56.4813 85.2027C56.2917 85.0169 56.1427 84.7936 56.0436 84.5469C55.9346 84.2808 55.88 83.9954 55.8829 83.7077ZM56.642 83.7077C56.642 83.8974 56.6757 84.0856 56.7417 84.2634C56.8014 84.4347 56.8957 84.5917 57.0187 84.7248C57.1389 84.8532 57.2841 84.9553 57.4454 85.0249C57.6201 85.101 57.8089 85.1388 57.9994 85.136C58.1897 85.1382 58.3785 85.1004 58.5534 85.0249C58.7186 84.9557 58.8673 84.852 58.9896 84.7207C59.1119 84.5894 59.205 84.4335 59.2626 84.2634C59.3241 84.0846 59.3558 83.8969 59.3568 83.7077C59.3568 83.5184 59.325 83.3305 59.2626 83.1519C59.201 82.9833 59.1069 82.8284 58.9856 82.6962C58.8665 82.5653 58.7211 82.4611 58.559 82.3905C58.3835 82.3165 58.1952 82.2783 58.0049 82.2783C57.8146 82.2783 57.6262 82.3165 57.4508 82.3905C57.2895 82.4627 57.1444 82.5667 57.0241 82.6962C56.9063 82.83 56.8142 82.9845 56.7527 83.1519C56.6824 83.3289 56.6449 83.5172 56.642 83.7077Z" fill="#33475B"/>
<path d="M61.1074 81.7512H62.0336L63.8565 84.697V81.7512H64.5545V85.6864H63.668L61.8064 82.646V85.6864H61.1074V81.7512Z" fill="#33475B"/>
<path d="M67.7618 82.573C67.678 82.469 67.5719 82.3854 67.4514 82.3284C67.3233 82.268 67.1837 82.2358 67.0421 82.234C66.9602 82.2355 66.8785 82.2448 66.7983 82.2619C66.7209 82.2843 66.6465 82.316 66.5767 82.3563C66.512 82.3999 66.4573 82.4568 66.416 82.5231C66.3707 82.5985 66.3477 82.6853 66.3494 82.7733C66.3487 82.8527 66.3678 82.9311 66.4048 83.0013C66.445 83.0651 66.4977 83.1199 66.5599 83.1625C66.6326 83.2103 66.7107 83.2495 66.7925 83.2791L67.0973 83.3792C67.2248 83.4181 67.3577 83.4682 67.4906 83.5181C67.6232 83.569 67.7481 83.6383 67.8617 83.7238C67.9751 83.8111 68.0694 83.9208 68.1387 84.0462C68.2147 84.1956 68.251 84.3622 68.244 84.5298C68.2496 84.7217 68.2098 84.9121 68.1277 85.0856C68.0558 85.2392 67.9497 85.3742 67.8175 85.4801C67.6844 85.5894 67.5295 85.669 67.3633 85.7135C67.1834 85.7662 66.9967 85.7924 66.8093 85.7913C66.5532 85.7902 66.2995 85.7411 66.0612 85.6467C65.8297 85.5611 65.6238 85.4176 65.4629 85.2299L65.9615 84.763C66.063 84.8988 66.1961 85.0075 66.3492 85.0797C66.4952 85.1542 66.6563 85.1941 66.8201 85.1964C66.9043 85.1965 66.9882 85.1853 67.0695 85.1631C67.1538 85.1485 67.2335 85.1143 67.3021 85.0631C67.3686 85.0131 67.4251 84.9508 67.4684 84.8796C67.5133 84.7982 67.5344 84.7057 67.5294 84.6128C67.5334 84.5203 67.5082 84.4289 67.4574 84.3515C67.4065 84.2788 67.3404 84.2181 67.2636 84.1737C67.1726 84.1204 67.0759 84.0775 66.9754 84.0458L66.6262 83.9291L66.2717 83.7958C66.1562 83.7445 66.0496 83.6751 65.9559 83.5901C65.8577 83.5015 65.7786 83.3937 65.7233 83.2733C65.6613 83.1276 65.6311 82.9703 65.6346 82.812C65.6306 82.6314 65.6746 82.453 65.7621 82.2951C65.8433 82.1521 65.9549 82.0287 66.089 81.9339C66.2295 81.8382 66.385 81.7668 66.5489 81.7225C66.719 81.6784 66.894 81.656 67.0697 81.6558C67.2774 81.6562 67.4835 81.692 67.6793 81.7614C67.8843 81.8264 68.0731 81.9343 68.2332 82.0782L67.7618 82.573Z" fill="#33475B"/>
<path d="M70.9863 81.7513H72.2662C72.4709 81.7502 72.6752 81.7707 72.8757 81.8124C73.0435 81.8447 73.2022 81.9129 73.3412 82.0125C73.4706 82.1024 73.5738 82.2251 73.6404 82.3682C73.7157 82.5317 73.7518 82.7106 73.7457 82.8906C73.754 83.0834 73.712 83.2749 73.6238 83.4464C73.5486 83.5923 73.4357 83.7151 73.2968 83.8021C73.1493 83.9009 72.9834 83.9689 72.8092 84.0021C72.6161 84.0433 72.4192 84.0638 72.2218 84.0633H71.6678V85.6919H70.9863V81.7513ZM72.171 83.4689C72.2806 83.4688 72.3899 83.4594 72.4979 83.441C72.5948 83.4282 72.6887 83.3981 72.7749 83.352C72.8553 83.315 72.9227 83.2548 72.9688 83.1791C73.0214 83.0923 73.0465 82.9914 73.0407 82.89C73.0461 82.7903 73.021 82.6914 72.9688 82.6065C72.9225 82.5345 72.8573 82.4768 72.7803 82.4397C72.6943 82.3989 72.6029 82.3708 72.5089 82.3563C72.4037 82.3507 72.2983 82.3507 72.1932 82.3563H71.6833V83.468L72.171 83.4689Z" fill="#33475B"/>
<path d="M75.6011 81.7512H76.2042L77.8941 85.6864H77.0797L76.7136 84.786H75.0292L74.6747 85.6864H73.8945L75.6011 81.7512ZM76.4876 84.1858L75.8845 82.5851L75.2696 84.1858H76.4876Z" fill="#33475B"/>
<path d="M78.6162 81.7512H79.9792C80.1654 81.7486 80.3512 81.7672 80.5332 81.8068C80.6991 81.8419 80.8569 81.9079 80.9986 82.0012C81.1327 82.0898 81.2431 82.2101 81.32 82.3515C81.4111 82.5219 81.4533 82.7142 81.4419 82.9072C81.4541 83.1612 81.3689 83.4102 81.2037 83.603C81.0294 83.7939 80.798 83.9228 80.5444 83.9703L81.5916 85.7156H80.7494L79.8407 84.0481H79.2975V85.7156H78.5996L78.6162 81.7512ZM79.8851 83.4187C79.9846 83.427 80.0847 83.427 80.1842 83.4187C80.2784 83.4047 80.3698 83.3765 80.4556 83.3353C80.5351 83.2947 80.6021 83.2332 80.6495 83.1575C80.7062 83.0722 80.7335 82.9706 80.727 82.8683C80.731 82.7741 80.7059 82.6809 80.6551 82.6015C80.6093 82.5326 80.5462 82.4769 80.4722 82.4403C80.3939 82.3996 80.3098 82.3714 80.2228 82.3569C80.1306 82.3491 80.038 82.3491 79.9458 82.3569H79.2975V83.4686L79.8851 83.4187Z" fill="#33475B"/>
<path d="M83.1759 82.3627H81.957V81.7512H85.0597V82.3627H83.8574V85.6977H83.1759V82.3627Z" fill="#33475B"/>
<path d="M85.8477 81.7512H86.7738L88.5967 84.697V81.7512H89.2948V85.6864H88.4082L86.5466 82.646V85.6864H85.8477V81.7512Z" fill="#33475B"/>
<path d="M90.499 81.7512H93.0966V82.3627H91.1962V83.3632H92.9969V83.9524H91.1962V85.0641H93.1964V85.6866H90.499V81.7512Z" fill="#33475B"/>
<path d="M94.2129 81.7512H95.5759C95.762 81.7486 95.9479 81.7672 96.1299 81.8068C96.2954 81.843 96.4531 81.9089 96.5953 82.0012C96.7294 82.0898 96.8398 82.2101 96.9167 82.3515C97.0078 82.5219 97.05 82.7142 97.0386 82.9072C97.0508 83.1612 96.9656 83.4102 96.8004 83.603C96.6261 83.7939 96.3947 83.9228 96.1411 83.9703L97.1883 85.7156H96.3461L95.4374 84.0481H94.9276V85.7156H94.2295L94.2129 81.7512ZM95.4818 83.4187C95.5813 83.427 95.6814 83.427 95.7809 83.4187C95.8748 83.4037 95.9662 83.3757 96.0523 83.3353C96.1318 83.2947 96.1988 83.2332 96.2462 83.1575C96.3029 83.0722 96.3302 82.9706 96.3237 82.8683C96.3277 82.7741 96.3026 82.6809 96.2518 82.6015C96.2059 82.5327 96.1428 82.4771 96.0689 82.4403C95.9906 82.3996 95.9065 82.3714 95.8195 82.3569C95.7273 82.3491 95.6347 82.3491 95.5425 82.3569H94.9108V83.4686L95.4818 83.4187Z" fill="#33475B"/>
<path d="M51.0957 90.0884H52.3756C52.5802 90.0873 52.7845 90.1078 52.9849 90.1496C53.1526 90.1818 53.3114 90.2501 53.4504 90.3497C53.577 90.4425 53.6796 90.5644 53.7495 90.7053C53.8249 90.8688 53.861 91.0478 53.8549 91.2278C53.8631 91.4205 53.8211 91.6121 53.7329 91.7835C53.654 91.9284 53.5396 92.0508 53.4006 92.1392C53.2545 92.2369 53.0907 92.3049 52.9186 92.3393C52.7254 92.3802 52.5286 92.4007 52.3312 92.4004H51.7772V94.029H51.0957V90.0884ZM52.2804 91.806C52.3899 91.8056 52.4993 91.7963 52.6073 91.7781C52.7041 91.7649 52.7978 91.7347 52.8843 91.6891C52.9632 91.65 53.0301 91.5903 53.0782 91.5163C53.1307 91.4294 53.1558 91.3286 53.1501 91.2271C53.1555 91.1275 53.1304 91.0286 53.0782 90.9437C53.03 90.8713 52.9629 90.8136 52.8843 90.7768C52.7986 90.7353 52.7071 90.7072 52.6129 90.6934C52.5096 90.6879 52.4061 90.6879 52.3027 90.6934H51.7929V91.8052L52.2804 91.806Z" fill="#33475B"/>
<path d="M54.8076 90.0886H56.1706C56.3568 90.0862 56.5426 90.1048 56.7246 90.1441C56.8884 90.1803 57.0443 90.2462 57.1845 90.3386C57.3203 90.4268 57.4325 90.5471 57.5114 90.6888C57.6025 90.8592 57.6447 91.0516 57.6333 91.2446C57.6435 91.4992 57.5563 91.7481 57.3895 91.9404C57.2175 92.1312 56.9879 92.2602 56.7358 92.3077L57.783 94.053H56.9408L56.0321 92.3855H55.5223V94.053H54.8076V90.0886ZM56.0765 91.7561C56.176 91.7644 56.2761 91.7644 56.3757 91.7561C56.4681 91.742 56.5578 91.7139 56.6417 91.6726C56.7238 91.6338 56.793 91.572 56.8411 91.4948C56.8955 91.4085 56.9226 91.3077 56.9187 91.2057C56.9226 91.1114 56.8975 91.0183 56.8467 90.9388C56.7985 90.8722 56.736 90.8171 56.6639 90.7777C56.5834 90.7377 56.4975 90.7096 56.409 90.6943C56.3187 90.6865 56.2278 90.6865 56.1374 90.6943H55.5059V91.806L56.0765 91.7561Z" fill="#33475B"/>
<path d="M58.4378 92.0455C58.4328 91.7527 58.4855 91.4618 58.5929 91.1896C58.693 90.9451 58.8435 90.7247 59.0344 90.5427C59.2254 90.3607 59.4526 90.2213 59.7011 90.1336C59.9712 90.0363 60.2563 89.9874 60.5433 89.9891C60.8321 89.9874 61.119 90.0363 61.391 90.1336C61.6403 90.2228 61.8685 90.3626 62.0616 90.5442C62.2509 90.7259 62.4 90.9456 62.4992 91.1889C62.6085 91.4608 62.6631 91.7517 62.6599 92.0448C62.6629 92.3325 62.6082 92.6179 62.4992 92.8841C62.4002 93.1307 62.2511 93.354 62.0616 93.5399C61.8697 93.7272 61.6415 93.8729 61.391 93.9679C60.8467 94.1754 60.2454 94.1754 59.7011 93.9679C59.4519 93.8736 59.2249 93.7286 59.0342 93.5421C58.8435 93.3556 58.6932 93.1315 58.5929 92.8841C58.4861 92.6177 58.4334 92.3326 58.4378 92.0455ZM59.1969 92.0455C59.1978 92.2346 59.2296 92.4224 59.291 92.6012C59.3531 92.7713 59.4471 92.9279 59.568 93.0625C59.6893 93.1896 59.8343 93.2916 59.9947 93.3627C60.1698 93.4378 60.3583 93.4765 60.5488 93.4765C60.7392 93.4765 60.9277 93.4378 61.1029 93.3627C61.2665 93.2919 61.4136 93.1875 61.5348 93.0564C61.656 92.9253 61.7485 92.7703 61.8065 92.6012C61.8725 92.4234 61.9063 92.2352 61.9063 92.0455C61.9068 91.8557 61.873 91.6674 61.8065 91.4897C61.7471 91.3212 61.6549 91.1663 61.5351 91.034C61.416 90.9031 61.2706 90.7989 61.1085 90.7283C60.9329 90.655 60.7445 90.6173 60.5544 90.6173C60.3642 90.6173 60.1759 90.655 60.0003 90.7283C59.8407 90.8004 59.6974 90.9045 59.5792 91.034C59.4597 91.1675 59.3658 91.322 59.3022 91.4897C59.2362 91.6677 59.2009 91.8556 59.1979 92.0455H59.1969Z" fill="#33475B"/>
<path d="M67.1065 93.8296C66.8963 93.9295 66.675 94.0041 66.4472 94.0519C66.178 94.111 65.9028 94.139 65.6272 94.1353C65.33 94.1403 65.0345 94.0875 64.7573 93.9797C64.5053 93.8847 64.2753 93.739 64.0814 93.5517C63.8901 93.3662 63.7394 93.1427 63.6387 92.8957C63.5319 92.6291 63.4791 92.3437 63.4837 92.0564C63.4805 91.7633 63.5351 91.4724 63.6443 91.2005C63.7496 90.9577 63.9022 90.7385 64.0932 90.5558C64.2891 90.3752 64.5188 90.2356 64.7691 90.1452C65.0392 90.0479 65.3243 89.999 65.6113 90.0007C65.9029 89.9973 66.1931 90.0423 66.4701 90.134C66.7045 90.2101 66.9213 90.333 67.1072 90.4953L66.6251 91.0177C66.507 90.8936 66.3633 90.7969 66.2041 90.7342C65.8366 90.583 65.4246 90.583 65.0571 90.7342C64.895 90.8049 64.7496 90.9091 64.6304 91.04C64.5111 91.1736 64.4172 91.3281 64.3534 91.4957C64.2908 91.6742 64.2589 91.8622 64.2593 92.0515C64.2602 92.2406 64.292 92.4283 64.3534 92.6072C64.4155 92.7773 64.5095 92.9339 64.6304 93.0685C64.7538 93.1982 64.9029 93.3004 65.0681 93.3687C65.2545 93.4447 65.4542 93.4825 65.6555 93.4797C65.9225 93.4867 66.1883 93.4395 66.4367 93.3408V92.3401H65.6111V91.7844H67.1065V93.8296Z" fill="#33475B"/>
<path d="M68.2773 90.0886H69.6403C69.8265 90.0862 70.0123 90.1048 70.1943 90.1441C70.3581 90.1803 70.514 90.2462 70.6542 90.3386C70.79 90.4268 70.9023 90.5471 70.9811 90.6888C71.0722 90.8592 71.1144 91.0516 71.1031 91.2446C71.1132 91.4992 71.026 91.7481 70.8592 91.9404C70.6872 92.1312 70.4576 92.2602 70.2055 92.3077L71.2528 94.053H70.4106L69.5018 92.3855H68.992V94.053H68.2939L68.2773 90.0886ZM69.5462 91.7561C69.6458 91.7644 69.7458 91.7644 69.8454 91.7561C69.9378 91.742 70.0275 91.7139 70.1114 91.6726C70.1935 91.6338 70.2627 91.572 70.3109 91.4948C70.3652 91.4085 70.3923 91.3077 70.3884 91.2057C70.3924 91.1114 70.3672 91.0182 70.3165 90.9388C70.2682 90.8722 70.2057 90.8171 70.1336 90.7777C70.0534 90.737 69.9675 90.7089 69.8788 90.6942C69.7885 90.6865 69.6977 90.6865 69.6074 90.6942H68.9759V91.806L69.5462 91.7561Z" fill="#33475B"/>
<path d="M73.3247 90.0884H73.9278L75.6178 94.0236H74.8208L74.4546 93.1232H72.7531L72.3985 94.0236H71.6182L73.3247 90.0884ZM74.2115 92.5238L73.6084 90.9231L72.9934 92.5238H74.2115Z" fill="#33475B"/>
<path d="M76.3389 90.0884H77.4471L78.4665 92.8676L79.475 90.0884H80.5831V94.0236H79.8907V90.86L78.6993 94.0227H78.1895L77.0148 90.86V94.0227H76.3499L76.3389 90.0884Z" fill="#33475B"/>
<path d="M126.297 47.6685H5.70419C5.34494 47.6685 5.05371 47.9606 5.05371 48.321V72.5839C5.05371 72.9443 5.34494 73.2364 5.70419 73.2364H126.297C126.656 73.2364 126.947 72.9443 126.947 72.5839V48.321C126.947 47.9606 126.656 47.6685 126.297 47.6685Z" fill="#FF7A59"/>
<path d="M125.285 47.6959C125.726 47.6959 126.148 47.8716 126.46 48.1843C126.772 48.497 126.947 48.9211 126.947 49.3634V71.5964C126.947 72.0387 126.772 72.4628 126.46 72.7755C126.148 73.0882 125.726 73.2639 125.285 73.2639H6.71567C6.27484 73.2639 5.85206 73.0882 5.54035 72.7755C5.22863 72.4628 5.0535 72.0387 5.0535 71.5964V49.3634C5.0535 48.9211 5.22863 48.497 5.54035 48.1843C5.85206 47.8716 6.27484 47.6959 6.71567 47.6959H125.285ZM125.285 43.2493H6.71567C5.09903 43.2493 3.5486 43.8935 2.40547 45.0403C1.26233 46.1871 0.620117 47.7425 0.620117 49.3643V71.5964C0.620117 73.2182 1.26233 74.7736 2.40547 75.9204C3.5486 77.0671 5.09903 77.7114 6.71567 77.7114H125.285C126.901 77.7114 128.452 77.0671 129.595 75.9204C130.738 74.7736 131.38 73.2182 131.38 71.5964V49.3634C131.38 47.7417 130.738 46.1866 129.595 45.04C128.452 43.8934 126.901 43.2493 125.285 43.2493Z" fill="white"/>
<path d="M81.7791 31.2268V29.7096C81.9789 29.6167 82.1481 29.4684 82.2669 29.2823C82.3856 29.0962 82.449 28.8801 82.4495 28.6592V28.6258C82.4479 28.3169 82.3248 28.0209 82.107 27.8025C81.8892 27.584 81.5944 27.4607 81.2864 27.4592H81.2531C80.9447 27.4592 80.6488 27.582 80.4307 27.8008C80.2126 28.0196 80.09 28.3164 80.09 28.6258V28.6592C80.0905 28.8801 80.1539 29.0962 80.2726 29.2823C80.3914 29.4684 80.5605 29.6167 80.7603 29.7096V31.2268C80.1861 31.317 79.6455 31.5565 79.1923 31.9217L75.0423 28.6805C75.0713 28.5736 75.0862 28.4634 75.0867 28.3526C75.088 28.0923 75.0124 27.8374 74.8694 27.6202C74.7265 27.4029 74.5228 27.2331 74.2837 27.1319C74.0447 27.0307 73.7811 27.0026 73.5262 27.0515C73.2714 27.1003 73.0366 27.2239 72.8516 27.4064C72.6666 27.5889 72.5397 27.8222 72.4867 28.077C72.4337 28.3318 72.457 28.5966 72.5539 28.8381C72.6507 29.0796 72.8167 29.2868 73.0308 29.4338C73.245 29.5808 73.4977 29.6609 73.7572 29.664C73.985 29.6633 74.2086 29.6022 74.4052 29.4866L78.5054 32.6878C78.1434 33.2305 77.9505 33.869 77.9514 34.522C77.9532 35.2044 78.1638 35.8698 78.5545 36.4285L77.3134 37.6903C77.2134 37.6568 77.1087 37.6398 77.0033 37.6403C76.7896 37.6403 76.5807 37.704 76.4031 37.823C76.2254 37.9421 76.0869 38.1114 76.0051 38.3094C75.9233 38.5075 75.902 38.7255 75.9437 38.9357C75.9854 39.146 76.0882 39.3391 76.2393 39.4907C76.3904 39.6423 76.5829 39.7453 76.7925 39.7872C77.0021 39.829 77.2193 39.8076 77.4167 39.7255C77.6141 39.6435 77.7829 39.5045 77.9016 39.3263C78.0204 39.1481 78.0837 38.9386 78.0837 38.7243V38.7188C78.0815 38.615 78.0648 38.5121 78.0339 38.413L79.2585 37.1347C79.6597 37.4506 80.1278 37.6697 80.6269 37.7749C81.126 37.8802 81.6427 37.8687 82.1367 37.7416C82.6307 37.6145 83.0889 37.3751 83.4759 37.0419C83.8629 36.7087 84.1683 36.2907 84.3684 35.8201C84.5686 35.3495 84.6581 34.8389 84.6301 34.328C84.6021 33.8172 84.4573 33.3197 84.2069 32.874C83.9565 32.4282 83.6073 32.0463 83.1862 31.7577C82.7651 31.4691 82.2834 31.2815 81.7785 31.2095M81.2687 36.212C80.9321 36.2132 80.6027 36.1141 80.3222 35.9275C80.0417 35.7409 79.8227 35.475 79.6928 35.1634C79.563 34.8519 79.5281 34.5088 79.5927 34.1774C79.6573 33.846 79.8183 33.5412 80.0555 33.3017C80.2928 33.0621 80.5955 32.8987 80.9254 32.8318C81.2553 32.7648 81.5976 32.7976 81.909 32.9259C82.2203 33.0541 82.4868 33.2722 82.6746 33.5524C82.8625 33.8325 82.9632 34.1624 82.9642 34.5V34.5112C82.9641 34.9623 82.7855 35.3948 82.4675 35.7138C82.1496 36.0327 81.7184 36.212 81.2687 36.212Z" fill="#FF7A59"/>
<path d="M70.5211 39.9423V34.6338C70.5211 34.6176 70.5199 34.6003 70.5192 34.5832C70.4881 33.7435 70.7907 32.9257 71.3605 32.3097C71.9303 31.6938 72.7205 31.3302 73.5575 31.2988C74.4307 31.2899 75.2723 31.626 75.9005 32.2344C76.5287 32.8428 76.8931 33.6748 76.915 34.5505C76.9299 35.3972 76.6092 36.2153 76.0234 36.825C75.4375 37.4347 74.6344 37.7862 73.7904 37.8024C73.4622 37.817 73.1347 37.761 72.8298 37.6382C72.525 37.5154 72.2499 37.3286 72.0229 37.0904V39.9427L70.5211 39.9423ZM72.072 34.5176C72.0685 34.7432 72.1095 34.9671 72.1927 35.1768C72.2759 35.3864 72.3996 35.5776 72.5566 35.7391C72.7137 35.9007 72.901 36.0294 73.1078 36.1181C73.3147 36.2068 73.537 36.2535 73.7619 36.2557C73.9868 36.2579 74.2099 36.2154 74.4185 36.1308C74.627 36.0461 74.8167 35.921 74.9768 35.7625C75.1369 35.6041 75.2642 35.4154 75.3514 35.2074C75.4386 34.9994 75.484 34.7761 75.4849 34.5505L75.4633 34.5345C75.4644 34.3111 75.4217 34.0898 75.3375 33.8831C75.2534 33.6763 75.1294 33.4881 74.9728 33.3294C74.8162 33.1706 74.6299 33.0445 74.4247 32.958C74.2194 32.8715 73.9991 32.8264 73.7765 32.8252C73.5539 32.8241 73.3332 32.867 73.1271 32.9514C72.9209 33.0359 72.7334 33.1602 72.5752 33.3173C72.417 33.4745 72.2911 33.6613 72.2049 33.8672C72.1187 34.0731 72.0737 34.2942 72.0726 34.5176H72.072ZM87.7464 37.8803C86.4668 37.8803 85.5296 37.1969 85.5296 35.8343V30.5096L87.0535 29.8261V31.5765H88.4277V32.8945H87.0492V35.5066C87.0492 36.0954 87.2988 36.4846 88.1907 36.4846L88.1961 36.4568H88.7224L88.3512 37.8296C88.1748 37.8638 87.9955 37.8809 87.8158 37.8807C87.793 37.8811 87.7701 37.8807 87.7472 37.8803H87.7464ZM48.203 37.8748V34.3448H44.8682V37.8748H43.2842V29.1758H44.8682V32.817H48.2041V29.1758H49.7887V37.8748H48.203ZM60.3311 37.8695C60.3143 37.8695 60.2972 37.8683 60.2804 37.867C59.8663 37.8448 59.4606 37.7409 59.0865 37.5614C58.7123 37.382 58.3771 37.1304 58.0999 36.821C57.8227 36.5115 57.609 36.1504 57.4709 35.7581C57.3329 35.3658 57.2732 34.9499 57.2953 34.5345V29.226H58.7964V32.0888C59.0253 31.8499 59.3024 31.6629 59.6092 31.5402C59.916 31.4175 60.2454 31.3621 60.5753 31.3775L60.5638 31.3661C61.4079 31.3821 62.2112 31.7334 62.7972 32.3431C63.3833 32.9528 63.7042 33.771 63.6894 34.6178C63.6677 35.4876 63.3081 36.3143 62.6873 36.9219C62.0665 37.5294 61.2336 37.8695 60.3663 37.8697L60.3311 37.8695ZM60.5529 32.9341C60.2148 32.9353 59.8846 33.0368 59.604 33.226C59.3234 33.4151 59.105 33.6834 58.9762 33.997C58.8473 34.3106 58.814 34.6553 58.8802 34.9879C58.9465 35.3205 59.1095 35.626 59.3486 35.8657C59.5877 36.1055 59.8922 36.2689 60.2237 36.3352C60.5552 36.4016 60.8989 36.3679 61.2115 36.2386C61.524 36.1092 61.7914 35.8899 61.9798 35.6083C62.1683 35.3267 62.2694 34.9956 62.2704 34.6564V34.6454C62.269 34.1911 62.0879 33.7557 61.7672 33.4349C61.4464 33.1141 61.012 32.934 60.5591 32.9339L60.5529 32.9341ZM64.1822 36.5627L65.29 35.4513C65.6993 35.9122 65.9883 36.3462 66.8746 36.3462C67.1395 36.3527 67.3967 36.2571 67.5936 36.0793C67.7904 35.9014 67.9119 35.6546 67.9331 35.3897C67.9331 33.7391 64.3429 34.6732 64.3429 31.7326C64.3429 30.1429 65.4897 29.1865 67.1521 29.1865C67.5927 29.1982 68.0258 29.3034 68.4231 29.495C68.8203 29.6867 69.1725 29.9606 69.4567 30.2986L68.4704 31.4655C68.1074 31.0496 67.6046 30.7822 67.0577 30.7147C66.919 30.6953 66.7776 30.7075 66.6442 30.7504C66.5108 30.7932 66.3887 30.8658 66.287 30.9624C66.1854 31.0591 66.1067 31.1774 66.0569 31.3087C66.0071 31.44 65.9874 31.581 65.9993 31.721L65.9562 31.7041C65.9562 33.1493 69.5463 32.0988 69.5463 35.373C69.5463 36.8903 68.3218 37.8579 66.7758 37.8579H66.7606C66.26 37.8581 65.7662 37.7412 65.3186 37.5163C64.871 37.2914 64.4819 36.965 64.1822 36.5627ZM50.7347 35.0624V31.3382H52.2365V35.0624C52.2605 35.3946 52.409 35.7054 52.6521 35.9322C52.8952 36.159 53.2149 36.285 53.5469 36.285C53.8789 36.285 54.1986 36.159 54.4417 35.9322C54.6848 35.7054 54.8333 35.3946 54.8573 35.0624V31.3382H56.359V35.0624C56.3276 35.7673 56.0345 36.435 55.5371 36.9339C55.0396 37.4328 54.374 37.7266 53.6713 37.7579C53.6282 37.7598 53.586 37.7609 53.5447 37.761C52.8203 37.7603 52.1241 37.4792 51.6009 36.9765C51.0777 36.4738 50.7678 35.7882 50.7358 35.0622L50.7347 35.0624Z" fill="#33475B"/>
<path d="M35.793 54.8657H39.3721C39.9456 54.8592 40.518 54.9172 41.0787 55.0386C41.5478 55.1323 41.9928 55.3215 42.3863 55.5943C42.7443 55.8496 43.0321 56.1915 43.2229 56.5883C43.4294 57.0471 43.5298 57.5468 43.5165 58.0501C43.5366 58.5844 43.4182 59.1149 43.1729 59.5896C42.9545 59.9964 42.6384 60.3422 42.2532 60.5957C41.8392 60.8639 41.3791 61.0524 40.8962 61.1514C40.3503 61.2711 39.7928 61.3291 39.2341 61.3243H37.7435V65.8878H35.793V54.8657ZM39.1173 59.6737C39.4233 59.6748 39.7289 59.6524 40.0314 59.6069C40.3011 59.5634 40.5625 59.4791 40.8068 59.3567C41.0319 59.2464 41.2232 59.0774 41.3608 58.8675C41.5033 58.6216 41.5725 58.34 41.5603 58.0559C41.5725 57.7806 41.5031 57.5079 41.3608 57.2722C41.2232 57.0651 41.0316 56.8998 40.8068 56.7942C40.5685 56.6768 40.3117 56.6015 40.0478 56.5719C39.7576 56.5337 39.4651 56.5151 39.1725 56.5163H37.7429V59.6734L39.1173 59.6737Z" fill="white"/>
<path d="M44.9463 54.1213H46.8079V65.8883H44.9463V54.1213Z" fill="white"/>
<path d="M53.6394 64.9269H53.5946C53.3834 65.2838 53.0736 65.5715 52.7027 65.7551C52.2635 65.972 51.7791 66.0806 51.2897 66.0719C50.9741 66.0698 50.6599 66.0307 50.3534 65.9552C50.0331 65.8814 49.729 65.7496 49.4559 65.5663C49.1759 65.3822 48.9411 65.1372 48.7688 64.8493C48.5769 64.5113 48.483 64.1263 48.4974 63.7376C48.4732 63.2454 48.6445 62.7636 48.9738 62.3979C49.314 62.0505 49.7318 61.7894 50.1927 61.6365C50.7297 61.4496 51.2883 61.3319 51.8549 61.2862C52.458 61.2307 53.0516 61.1972 53.6278 61.1972V61.036C53.6422 60.8344 53.6031 60.6325 53.5145 60.4509C53.426 60.2693 53.2911 60.1144 53.1235 60.0021C52.7656 59.771 52.3468 59.6529 51.9212 59.6631C51.5382 59.6658 51.1603 59.7511 50.813 59.9133C50.48 60.0622 50.1746 60.2668 49.9099 60.5183L48.9514 59.4066C49.3739 59.0123 49.8741 58.7112 50.4197 58.5228C50.9523 58.3271 51.5147 58.2255 52.0819 58.2227C52.6495 58.2011 53.2154 58.2977 53.7441 58.5062C54.1348 58.6648 54.4823 58.9144 54.7579 59.2344C55.0029 59.5295 55.1807 59.8748 55.2787 60.246C55.376 60.6086 55.4263 60.9823 55.4284 61.3577V65.9044H53.6388L53.6394 64.9269ZM53.6062 62.4636H53.1907C52.8743 62.4578 52.5579 62.4708 52.243 62.5025C51.9328 62.5255 51.6262 62.5835 51.3289 62.6754C51.0728 62.7492 50.835 62.876 50.6308 63.0477C50.5373 63.1296 50.4633 63.2316 50.4144 63.3461C50.3655 63.4606 50.3429 63.5846 50.3482 63.7091C50.3421 63.8656 50.3826 64.0205 50.4645 64.1538C50.5417 64.2732 50.6462 64.3723 50.7693 64.4429C50.8989 64.5161 51.0391 64.5686 51.1848 64.5985C51.3403 64.6269 51.4979 64.6418 51.6559 64.643C51.9158 64.6753 52.1797 64.6484 52.4279 64.5644C52.6762 64.4805 52.9024 64.3415 53.0897 64.1578C53.2771 63.9741 53.4208 63.7505 53.5102 63.5034C53.5996 63.2564 53.6324 62.9924 53.6062 62.7309V62.4636Z" fill="white"/>
<path d="M56.4316 59.9242V58.4289H57.7393V56.2668H59.5677V58.4289H61.4294V59.9242H59.5677V63.398C59.5586 63.6827 59.6195 63.9652 59.745 64.2206C59.8669 64.4367 60.1327 64.5487 60.5419 64.5487C60.6777 64.5488 60.8132 64.5357 60.9464 64.5098C61.0797 64.486 61.2098 64.4468 61.3342 64.3931L61.3951 65.8548C61.2045 65.9233 61.0078 65.9735 60.8077 66.0048C60.5915 66.0394 60.373 66.058 60.154 66.0603C59.7412 66.0744 59.3299 66.0025 58.9461 65.8492C58.6573 65.73 58.4037 65.5387 58.2093 65.2935C58.0249 65.0448 57.8981 64.7582 57.8379 64.4542C57.7693 64.1177 57.7359 63.775 57.7382 63.4315V59.9242H56.4316Z" fill="white"/>
<path d="M62.5098 55.8772C62.509 55.7307 62.538 55.5856 62.5952 55.4509C62.6523 55.3161 62.7364 55.1945 62.8421 55.0935C62.9537 54.9834 63.0864 54.8971 63.2321 54.8398C63.3779 54.7825 63.5337 54.7554 63.6901 54.7601C64.0064 54.7506 64.3141 54.8641 64.5489 55.0768C64.6537 55.1782 64.7375 55.2992 64.7957 55.433C64.8539 55.5668 64.8852 55.7109 64.8879 55.8568C64.8905 56.0028 64.8645 56.1479 64.8113 56.2838C64.7581 56.4196 64.6787 56.5437 64.5778 56.6488C64.5683 56.6587 64.559 56.6682 64.5489 56.6778C64.3161 56.8944 64.0075 57.0101 63.6901 56.9999C63.5337 57.0049 63.3778 56.9779 63.2321 56.9205C63.0864 56.8632 62.9538 56.7768 62.8423 56.6665C62.7375 56.5636 62.6542 56.4409 62.5971 56.3053C62.54 56.1698 62.5103 56.0243 62.5098 55.8772ZM62.7758 58.4118H64.6378V65.888H62.7762L62.7758 58.4118Z" fill="white"/>
<path d="M66.8144 58.412H68.5873V59.6125C68.7803 59.2099 69.0792 58.8678 69.4517 58.6231C69.8778 58.3335 70.3832 58.1839 70.8978 58.195C71.329 58.1855 71.7569 58.2728 72.1501 58.4507C72.4801 58.612 72.7712 58.8434 73.0033 59.1287C73.2261 59.4168 73.3917 59.7451 73.4909 60.0959C73.595 60.4572 73.6472 60.8315 73.646 61.2076V65.882H71.7844V61.7415C71.7826 61.513 71.7678 61.2847 71.74 61.0579C71.7112 60.8304 71.6417 60.6101 71.5349 60.4075C71.4342 60.2167 71.2875 60.0543 71.1082 59.9349C70.8925 59.8007 70.6416 59.7348 70.388 59.7458C70.1181 59.7387 69.8509 59.8019 69.6126 59.9293C69.3981 60.0406 69.2094 60.1958 69.0586 60.385C68.9256 60.5833 68.8281 60.8034 68.7704 61.0354C68.6985 61.2752 68.6611 61.5241 68.6595 61.7746V65.8876H66.7979L66.8144 58.412Z" fill="white"/>
<path d="M82.5606 65.8879H80.7931V64.6874C80.6002 65.0901 80.3013 65.4322 79.9287 65.6768C79.5007 65.967 78.9934 66.1165 78.477 66.1049C78.0468 66.1163 77.6199 66.0268 77.2303 65.8436C76.8983 65.688 76.6065 65.4579 76.3771 65.1712C76.1521 64.8846 75.9863 64.5558 75.8895 64.2041C75.7854 63.8428 75.7332 63.4684 75.7344 63.0923V58.4177H77.596V62.5586C77.5954 62.7926 77.6083 63.0265 77.6348 63.2589C77.6635 63.4846 77.733 63.7031 77.8398 63.9037C77.9401 64.0948 78.0869 64.2573 78.2665 64.3763C78.4811 64.5131 78.7329 64.5792 78.9868 64.5653C79.2392 64.5678 79.4888 64.5114 79.7158 64.4005C79.9427 64.2895 80.1408 64.1272 80.2944 63.9262C80.4406 63.7332 80.5496 63.5145 80.6158 63.2814C80.6862 63.0414 80.7217 62.7924 80.7211 62.5422V58.4287H82.5827L82.5606 65.8879Z" fill="white"/>
<path d="M93.6202 58.1956C94.0495 58.1866 94.4754 58.274 94.8668 58.4512C95.198 58.6107 95.4895 58.8424 95.72 59.1293C95.9449 59.4161 96.1106 59.7448 96.2077 60.0964C96.3117 60.4577 96.3639 60.8321 96.3627 61.2082V65.8826H94.502V61.7419C94.5002 61.5133 94.4854 61.2851 94.4576 61.0582C94.4288 60.8308 94.3594 60.6105 94.2526 60.4078C94.152 60.217 94.0053 60.0545 93.8259 59.9353C93.6102 59.8011 93.3592 59.7352 93.1056 59.7462C92.8456 59.7408 92.5891 59.8062 92.3631 59.9353C92.1576 60.0558 91.9815 60.2211 91.8479 60.4188C91.7115 60.62 91.6121 60.844 91.5544 61.0802C91.4935 61.3163 91.4619 61.559 91.4602 61.8028V65.8826H89.5986V61.3694C89.6138 60.9583 89.4973 60.5532 89.2663 60.2133C89.1432 60.0557 88.9832 59.9311 88.8005 59.8506C88.6177 59.7701 88.418 59.7362 88.219 59.752C87.9649 59.7458 87.714 59.8092 87.4932 59.9355C87.2922 60.0461 87.1196 60.2021 86.9889 60.3912C86.8542 60.5879 86.7531 60.8058 86.6898 61.036C86.624 61.2768 86.5905 61.5254 86.59 61.7752V65.8882H84.7275V58.4119H86.5006V59.6124H86.5338C86.617 59.4119 86.7289 59.2247 86.8662 59.0567C87.011 58.8843 87.1788 58.7328 87.3648 58.6064C87.5664 58.4651 87.7889 58.3563 88.0241 58.284C88.2901 58.2045 88.5665 58.1651 88.8441 58.1673C89.354 58.1496 89.8576 58.285 90.2902 58.5563C90.6692 58.815 90.9731 59.1698 91.1712 59.5846C91.4005 59.1508 91.7429 58.7877 92.162 58.534C92.6091 58.2924 93.1127 58.1756 93.6202 58.1956Z" fill="white"/>
<path d="M22.1686 60.4798C22.1686 60.1685 21.7144 59.8906 20.984 59.6803C20.4365 59.5261 19.9377 59.2336 19.5351 58.8307C19.1326 58.4279 18.8398 57.9282 18.6847 57.3793C18.4796 56.6401 18.197 56.1909 17.8925 56.1909C17.5879 56.1909 17.3051 56.6412 17.0955 57.3793C16.941 57.9275 16.6491 58.4268 16.2475 58.8297C15.846 59.2325 15.3483 59.5254 14.8018 59.6803C14.065 59.8917 13.6172 60.1695 13.6172 60.4798C13.6172 60.7901 14.0658 61.0691 14.8018 61.2746C15.3489 61.4302 15.847 61.724 16.2485 62.1278C16.6501 62.5316 16.9417 63.032 17.0955 63.5812C17.3062 64.3159 17.5832 64.7651 17.8925 64.7651C18.2018 64.7651 18.4799 64.3148 18.6847 63.5812C18.839 63.0314 19.1315 62.5306 19.5341 62.1267C19.9367 61.7228 20.4359 61.4294 20.984 61.2746C21.7144 61.0351 22.1686 60.7683 22.1686 60.4798Z" fill="white"/>
<path d="M118.636 60.4412C118.636 60.1299 118.187 59.852 117.451 59.6417C116.905 59.4868 116.407 59.1939 116.005 58.791C115.604 58.3881 115.312 57.8888 115.157 57.3405C114.947 56.6059 114.67 56.1521 114.36 56.1521C114.051 56.1521 113.773 56.6078 113.568 57.3405C113.413 57.8894 113.12 58.3892 112.718 58.7921C112.315 59.195 111.816 59.4875 111.269 59.6417C110.536 59.8531 110.084 60.1309 110.084 60.4412C110.084 60.7515 110.538 61.0305 111.269 61.236C111.817 61.3908 112.316 61.6842 112.719 62.0881C113.121 62.492 113.414 62.9928 113.568 63.5426C113.773 64.2772 114.056 64.731 114.36 64.731C114.665 64.731 114.948 64.2753 115.157 63.5426C115.311 62.9934 115.603 62.493 116.004 62.0892C116.406 61.6853 116.904 61.3916 117.451 61.236C118.159 61.0359 118.636 60.7524 118.636 60.4412Z" fill="white"/>
</svg>
